<?xml version="1.0" encoding="iso-8859-1"?>
<!-- Generator: Adobe Illustrator 19.0.0, SVG Export Plug-In . SVG Version: 6.00 Build 0)  -->
<svg version="1.1" id="Capa_1" xmlns="http://www.w3.org/2000/svg" xmlns:xlink="http://www.w3.org/1999/xlink" x="0px" y="0px"
	 viewBox="0 0 512.002 512.002" style="enable-background:new 0 0 512.002 512.002;" xml:space="preserve">
<path style="fill:#F5B955;" d="M317.051,85.585c-3.822,4.309-9.045,9.71-15.521,15.27c-16.095,15.263-40.039,33.289-69.906,42.081
	c-11.155,3.284-22.312,5.033-33.052,5.727c-22.161,30.032-35.269,67.153-35.269,107.34c0,84.728,58.226,155.847,136.845,175.551
	c78.618-19.704,136.845-90.823,136.845-175.551C436.995,177.471,386.97,110.632,317.051,85.585z"/>
<path style="fill:#46C373;" d="M66.38,146.258c21.303,3.54,49.149,4.869,76.97-3.323c37.169-10.942,65.167-36.185,80.274-52.603
	c-21.303-3.54-49.149-4.869-76.97,3.323C109.486,104.598,81.488,129.841,66.38,146.258z"/>
<path style="fill:#A5DC69;" d="M71.08,35.241c9.976,10.417,25.921,24.55,46.468,34.395c1.281-0.418,2.56-0.838,3.863-1.222
	c20.032-5.897,40.066-6.852,57.67-5.608c-12.541-9.839-28.562-19.554-47.338-24.878C109.988,31.758,88.284,32.547,71.08,35.241z"/>
<path style="fill:#46C373;" d="M239.055,75.102c-1.573-14.297,1.064-27.424,6.367-38.634c9.696-20.499,26.705-25.272,35.981-26.291
	c11.029-1.213,20.671,4.185,21.537,12.058c0.803,7.295-6.213,14.155-16.022,16.087c-3.128,2.978-8.773,17.753-6.713,36.485
	L239.055,75.102z"/>
<path style="fill:#FFFFFF;" d="M453.407,219.943L219.399,453.474c12.484,12.459,26.466,22.506,41.361,30.162l222.872-222.417
	C475.96,246.356,465.892,232.402,453.407,219.943z"/>
<path style="fill:#FAE196;" d="M453.571,453.638c52.153-52.047,62.156-130.235,30.06-192.418L260.76,483.636
	C323.07,515.667,401.418,505.684,453.571,453.638z"/>
<path style="fill:#FF9155;" d="M424.454,424.579c39.315-39.235,46.769-98.232,22.397-145.041L279.117,446.93
	C326.02,471.253,385.139,463.814,424.454,424.579z"/>
<path style="fill:#FF6E37;" d="M424.454,424.579c0.161-0.161,0.316-0.326,0.476-0.487l-61.05-61.05l-84.298,84.126
	C326.411,471.201,385.269,463.684,424.454,424.579z"/>
<path style="fill:#FFFFFF;" d="M456.495,366.167c2.3-9.424,3.528-19.269,3.528-29.401l0,0H336.41v123.612l0,0
	c10.133,0,19.977-1.228,29.401-3.528v-90.683H456.495z"/>
<path style="fill:#FF6E37;" d="M456.495,366.167h-90.683v90.683C410.46,445.955,445.6,410.815,456.495,366.167z"/>
<path style="fill:#FFFFFF;" d="M336.41,336.766v123.612c10.133,0,19.977-1.228,29.401-3.528v-90.683L336.41,336.766z"/>
<g>
	<path style="fill:#FF9155;" d="M365.812,366.167v90.683c22.325-5.447,42.277-16.948,58.005-32.678L365.812,366.167z"/>
	<path style="fill:#FF9155;" d="M87.673,248.901c-48.645,48.546-48.7,127.2-0.123,175.678s127.392,48.423,176.037-0.123
		L87.673,248.901z"/>
</g>
<g>
	<path style="fill:#FF6E37;" d="M175.057,336.108l-87.984,87.984c0.16,0.161,0.315,0.326,0.476,0.487
		c48.577,48.478,127.392,48.423,176.037-0.123L175.057,336.108z"/>
	<path style="fill:#FF6E37;" d="M51.98,336.766L51.98,336.766h123.612v123.612l0,0C107.323,460.378,51.98,405.035,51.98,336.766z"/>
</g>
<path style="fill:#FF9155;" d="M175.592,460.378L175.592,460.378V336.766l-87.407,87.407
	C110.554,446.542,141.457,460.378,175.592,460.378z"/>
<path style="fill:#FAE196;" d="M74.041,467.385c64.911,50.335,158.803,45.696,218.532-13.881L88.205,249.552
	C28.565,309.069,23.83,402.606,74.041,467.385z"/>
<path style="fill:#FFFFFF;" d="M118.24,279.468l145.315,145.019c0.01-0.01,0.021-0.02,0.032-0.031L87.673,248.901
	c-48.645,48.546-48.7,127.2-0.123,175.678c5.185,5.175,10.719,9.792,16.52,13.862C70.121,390.012,74.853,322.766,118.24,279.468z"/>
<path style="fill:#FF9155;" d="M263.555,424.487L118.24,279.468c-43.387,43.298-48.118,110.544-14.171,158.972
	C152.6,472.479,220.101,467.822,263.555,424.487z"/>
<path style="fill:#FFFFFF;" d="M175.057,336.108l-87.984,87.984c0.16,0.161,0.315,0.326,0.476,0.487
	c17.92,17.883,39.955,29.153,63.073,33.83l73.419-73.419L175.057,336.108z"/>
<path style="fill:#FF6E37;" d="M263.586,424.456l-39.546-39.465l-73.419,73.419C190.171,466.409,232.886,455.094,263.586,424.456z"
	/>
<path style="fill:#FFFFFF;" d="M81.53,366.316h94.062v-29.55H51.98l0,0c0,41.679,20.629,78.538,52.233,100.93
	C89.929,417.534,81.53,392.906,81.53,366.316L81.53,366.316z"/>
<path style="fill:#FF6E37;" d="M175.592,460.378v-94.062H81.53l0,0c0,26.589,8.397,51.217,22.682,71.379
	C124.375,451.98,149.003,460.378,175.592,460.378L175.592,460.378z"/>
<path style="fill:#FFFFFF;" d="M175.592,336.766l-87.407,87.407c7.494,7.494,15.95,14.025,25.161,19.404l62.246-62.246v-44.566
	H175.592z"/>
<path style="fill:#FF9155;" d="M175.592,381.33l-62.246,62.246c18.281,10.677,39.547,16.801,62.246,16.801V381.33z"/>
<path d="M460.47,212.866c-3.903-3.896-10.221-3.896-14.125-0.002L286.466,372.348c-3.91,3.9-3.917,10.231-0.018,14.141
	c3.901,3.909,10.232,3.918,14.142,0.017l25.822-25.758v56.315c0,5.522,4.477,9.999,9.999,9.999s9.999-4.477,9.999-9.999v-56.159
	l63.449,63.449c-31.161,26.004-74.057,33.657-112.616,19.622l-26.018-25.966c-0.183-0.217-0.371-0.43-0.573-0.632L94.736,241.824
	c-0.199-0.199-0.408-0.38-0.619-0.559l-7.828-7.812c0.205-0.594,0.359-1.215,0.45-1.861c3.726-26.216,13.708-51.509,28.873-73.297
	c9.968-0.92,20.249-2.732,30.562-5.768c50.147-14.763,84.003-53.353,94.693-66.949c2.95-0.26,5.899-0.444,8.837-0.554l10.399-0.075
	c68.646,1.672,130.809,45.262,155.544,109.537c1.529,3.974,5.317,6.411,9.334,6.41c1.194,0,2.409-0.215,3.589-0.669
	c5.153-1.984,7.724-7.769,5.741-12.923c-13.714-35.637-37.567-66.084-68.983-88.048c-22.822-15.957-48.492-26.567-75.548-31.385
	c-0.173-9.719,1.913-17.301,3.466-20.891c12.63-4.16,20.863-14.67,19.634-25.841c-1.492-13.566-15.804-22.748-32.569-20.903
	c-11.351,1.249-32.151,7.06-43.928,31.955c-2.977,6.293-5.103,12.939-6.373,19.767c-13.358-14.421-38.602-37.026-72.541-46.649
	c-50.648-14.362-99.994,6.047-102.07,6.924c-2.797,1.18-4.907,3.567-5.733,6.487c-0.828,2.921-0.284,6.059,1.479,8.53
	c0.79,1.109,16.568,22.94,43.532,40.821c-45.752,22.022-73.038,60.569-74.355,62.458c-1.736,2.489-2.248,5.631-1.39,8.543
	c0.857,2.911,2.99,5.275,5.797,6.427c1.698,0.696,29.864,12.022,66.733,13.418c-10.481,17.791-18.044,37.262-22.311,57.432
	l-3.493-3.486c-3.903-3.896-10.223-3.896-14.127,0C18.312,246.019,0.015,290.083,0.015,336.941
	c0,46.769,18.237,90.727,51.352,123.775c34.177,34.107,79.076,51.156,123.999,51.156c27.703,0,55.412-6.495,80.62-19.463
	c13.537,6.981,27.933,12.195,42.866,15.462c12.669,2.773,25.413,4.131,38.038,4.131c45.995,0,90.408-18.018,123.744-51.287
	c33.115-33.048,51.352-77.004,51.352-123.775C511.987,290.083,493.691,246.019,460.47,212.866z M254.46,40.744
	c7.236-15.297,19.24-19.661,28.036-20.628c0.705-0.078,1.378-0.113,2.021-0.113c5.257,0,8.378,2.368,8.483,3.325
	c0.09,0.821-2.232,4.044-8.016,5.182c-1.866,0.367-3.587,1.259-4.964,2.57c-5.191,4.945-9.826,18.314-10.214,33.802l-21.185,0.153
	C248.867,56.579,250.82,48.44,254.46,40.744z M76.406,26.285c16.509-4.594,46.163-10.085,75.608-1.736
	c22.689,6.433,41.233,20.03,53.882,31.689c-23.04-4.463-55.011-6.924-87.308,2.584c-0.064,0.019-0.127,0.039-0.192,0.058
	C99.572,49.125,85.047,35.6,76.406,26.285z M120.349,79.222c0.236-0.069,0.47-0.143,0.7-0.229c1.055-0.341,2.116-0.673,3.188-0.988
	c37.515-11.043,75.716-3.445,95.136,2.06c-13.34,15.15-41.329,42.235-78.844,53.279c-37.532,11.049-75.755,3.438-95.161-2.067
	C58.193,116.67,84.652,90.963,120.349,79.222z M424.047,410.262l-63.497-63.497h89.87
	C448.41,370.248,439.269,392.254,424.047,410.262z M360.477,326.767l63.566-63.409c15.189,18.008,24.322,39.977,26.362,63.409
	H360.477z M61.582,346.765h89.87l-63.497,63.497C72.733,392.254,63.593,370.248,61.582,346.765z M151.482,326.767H61.589
	c2.04-23.429,11.172-45.398,26.358-63.406L151.482,326.767z M165.594,360.905v89.516c-22.736-1.946-44.986-10.632-63.457-26.058
	L165.594,360.905z M185.592,360.806l63.499,63.37c-18.49,15.488-40.752,24.227-63.499,26.224V360.806z M65.495,446.56
	c-29.329-29.269-45.481-68.199-45.481-109.619c0-38.171,13.707-74.252,38.803-102.651l14.932,14.902
	c-21.09,24.38-32.595,55.143-32.595,87.662c0,34.788,13.175,67.541,37.164,92.587c0.473,0.971,1.104,1.884,1.91,2.691
	c0.816,0.816,1.741,1.451,2.724,1.926c25.847,24.522,59.167,36.779,92.502,36.779c31.332,0,62.674-10.832,87.838-32.487
	l14.931,14.901c-29.329,25.758-66.096,38.64-102.857,38.637C135.566,491.882,95.772,476.776,65.495,446.56z M446.508,446.56
	c-37.646,37.568-91.247,53.184-143.381,41.776c-9.111-1.995-17.996-4.806-26.564-8.375c6.592-4.638,12.933-9.781,18.969-15.43
	c13.434,4.289,27.246,6.39,40.961,6.389c35.002,0,69.348-13.643,95.023-39.264c25.365-25.313,39.332-58.981,39.332-94.804
	c0-32.522-11.507-63.287-32.6-87.667l14.935-14.898c25.096,28.399,38.804,64.481,38.804,102.653
	C491.989,378.361,475.837,417.291,446.508,446.56z"/>
<path d="M256.012,104.892c-5.522,0-9.999,4.477-9.999,9.999c0,5.522,4.477,9.999,9.999,9.999l0.68,0.002c0.021,0,0.041,0,0.061,0
	c5.493,0,9.965-4.438,9.998-9.939c0.033-5.522-4.418-10.025-9.939-10.059L256.012,104.892z"/>
<path d="M297.742,110.661c-5.316-1.509-10.842,1.58-12.348,6.891c-1.507,5.312,1.579,10.841,6.891,12.348
	c38.244,10.846,69.003,38.053,84.391,74.645c1.609,3.825,5.317,6.125,9.222,6.125c1.292,0,2.606-0.252,3.872-0.784
	c5.091-2.141,7.481-8.003,5.341-13.094C377.354,154.567,341.865,123.174,297.742,110.661z"/>
<g>
</g>
<g>
</g>
<g>
</g>
<g>
</g>
<g>
</g>
<g>
</g>
<g>
</g>
<g>
</g>
<g>
</g>
<g>
</g>
<g>
</g>
<g>
</g>
<g>
</g>
<g>
</g>
<g>
</g>
</svg>
